<svg role="img" height="16" width="16" aria-label="Conectar a um dispositivo" viewBox="0 0 16 16" class="Svg-sc-1bi12j5-0 gSLhUO" xmlns="http://www.w3.org/2000/svg"><path d="M3.001 12h10c.55 0 1-.45 1-1V3c0-.55-.45-1-1-1h-10c-.55 0-1 .45-1 1v8c0 .55.45 1 1 1zm0-9h10v8h-10V3zm12.5 11H.5c-.275 0-.5.225-.5.5s.225.5.5.5h15.001c.275 0 .5-.225.5-.5s-.225-.5-.5-.5z"></path><path d="M3.001 12h10c.55 0 1-.45 1-1V3c0-.55-.45-1-1-1h-10c-.55 0-1 .45-1 1v8c0 .55.45 1 1 1zm0-9h10v8h-10V3zm12.5 11H.5c-.275 0-.5.225-.5.5s.225.5.5.5h15.001c.275 0 .5-.225.5-.5s-.225-.5-.5-.5z" fill="#fff"></path></svg>